HIERARCHY
ROOT joint_0
{
	OFFSET 0.000000 0.000000 0.000000
	CHANNELS 6 Xposition Yposition Zposition Zrotation Yrotation Xrotation 
	JOINT joint_1
	{
		OFFSET 1.363060 -1.794630 0.839290
		CHANNELS 3 Zrotation Yrotation Xrotation
		JOINT joint_2
		{
			OFFSET 2.448110 -6.726130 0.000000
			CHANNELS 3 Zrotation Yrotation Xrotation
			JOINT joint_3
			{
				OFFSET 2.562200 -7.039590 0.000000
				CHANNELS 3 Zrotation Yrotation Xrotation
				JOINT joint_4
				{
					OFFSET 0.157640 -0.433110 2.322550
					CHANNELS 3 Zrotation Yrotation Xrotation
					End Site
					{
						OFFSET 0.000000 0.000000 0.000000
					}
				}
			}
		}
	}
	JOINT joint_5
	{
		OFFSET -1.305520 -1.794630 0.839290
		CHANNELS 3 Zrotation Yrotation Xrotation
		JOINT joint_6
		{
			OFFSET -2.542530 -6.985550 0.000000
			CHANNELS 3 Zrotation Yrotation Xrotation
			JOINT joint_7
			{
				OFFSET -2.568260 -7.056230 0.000000
				CHANNELS 3 Zrotation Yrotation Xrotation
				JOINT joint_8
				{
					OFFSET -0.164730 -0.452590 2.363150
					CHANNELS 3 Zrotation Yrotation Xrotation
					End Site
					{
						OFFSET 0.000000 0.000000 0.000000
					}
				}
			}
		}
	}
	JOINT joint_9
	{
		OFFSET 0.028270 2.035590 -0.193380
		CHANNELS 3 Zrotation Yrotation Xrotation
		JOINT joint_10
		{
			OFFSET 0.056720 2.048850 -0.042750
			CHANNELS 3 Zrotation Yrotation Xrotation
			JOINT joint_11
			{
				OFFSET -0.054170 1.746240 0.172020
				CHANNELS 3 Zrotation Yrotation Xrotation
				JOINT joint_12
				{
					OFFSET 0.104070 1.761360 -0.123970
					CHANNELS 3 Zrotation Yrotation Xrotation
					End Site
					{
						OFFSET 0.000000 0.000000 0.000000
					}
				}
			}
			JOINT joint_13
			{
				OFFSET 3.362410 1.200890 -0.311210
				CHANNELS 3 Zrotation Yrotation Xrotation
				JOINT joint_14
				{
					OFFSET 4.983000 -0.000000 -0.000000
					CHANNELS 3 Zrotation Yrotation Xrotation
					JOINT joint_15
					{
						OFFSET 3.483560 -0.000000 -0.000000
						CHANNELS 3 Zrotation Yrotation Xrotation
						JOINT joint_16
						{
							OFFSET 0.715260 -0.000000 -0.000000
							CHANNELS 3 Zrotation Yrotation Xrotation
							End Site
							{
								OFFSET 0.000000 0.000000 0.000000
							}
						}
					}
				}
			}
			JOINT joint_17
			{
				OFFSET -3.136600 1.374050 -0.404650
				CHANNELS 3 Zrotation Yrotation Xrotation
				JOINT joint_18
				{
					OFFSET -5.241900 -0.000000 -0.000000
					CHANNELS 3 Zrotation Yrotation Xrotation
					JOINT joint_19
					{
						OFFSET -3.444170 -0.000000 -0.000000
						CHANNELS 3 Zrotation Yrotation Xrotation
						JOINT joint_20
						{
							OFFSET -0.622530 -0.000000 -0.000000
							CHANNELS 3 Zrotation Yrotation Xrotation
							End Site
							{
								OFFSET 0.000000 0.000000 0.000000
							}
						}
					}
				}
			}
		}
	}
}
MOTION
Frames: 15
Frame Time: 0.041667
3.822662 15.961456 11.343533 -9.103549 -21.710400 22.394434 -7.031241 -6.704457 -50.998402 4.853535 19.077671 48.187614 -0.263832 6.310557 -11.016705 0.000200 -0.097600 -0.268000 17.941346 8.056406 -0.190680 1.637276 -2.156419 9.933499 0.321284 -6.242396 -12.000187 -0.749200 5.528700 -15.423000 1.812223 -2.548416 -4.522848 -1.386659 -1.012606 -5.935837 2.658322 15.848601 5.573390 -6.221300 8.038500 7.683400 -56.518146 -27.337694 50.568557 40.453128 -41.280075 -10.898463 1.775536 2.574486 9.088521 -7.125000 0.000000 0.000000 71.365552 36.926831 53.921191 -145.640715 33.567835 -107.699146 -1.045108 -0.007407 -18.385199 7.125000 0.000000 0.000000 
3.797360 15.970106 11.315420 -8.893312 -21.816171 22.176198 -7.172162 -6.669336 -50.645538 4.737091 18.961184 47.790864 -0.281609 6.386705 -10.842043 0.000300 -0.113500 -0.311700 17.743739 8.238543 -0.857453 1.519710 -2.677997 11.210491 0.185929 -5.602658 -12.425372 -0.760900 5.570800 -15.544100 1.801013 -2.579195 -4.530730 -1.407870 -1.029773 -5.907947 2.666912 15.756107 5.644809 -6.214800 8.004400 7.715000 -56.614380 -27.256171 50.443607 40.991494 -41.673422 -11.193844 1.760504 2.566853 9.444711 -7.125000 0.000000 0.000000 71.310243 36.980424 54.000560 -145.616673 33.577014 -107.683325 -1.044477 -0.007571 -18.369077 7.125000 0.000000 0.000000 
3.769356 15.978756 11.285145 -8.668216 -21.912479 21.933593 -7.318194 -6.635123 -50.273898 4.616740 18.838548 47.377425 -0.300155 6.464980 -10.650248 0.000400 -0.132600 -0.364200 17.544843 8.450748 -1.435116 1.403541 -3.154960 12.389927 0.068518 -5.072907 -12.838972 -0.777900 5.631200 -15.717900 1.792070 -2.617143 -4.538614 -1.419933 -1.050451 -5.880059 2.666674 15.677539 5.721938 -6.212000 7.976700 7.755500 -56.747669 -27.123913 50.234590 41.648241 -42.153038 -11.564554 1.742384 2.561470 9.677621 -7.125000 0.000000 0.000000 71.240499 37.022055 54.061346 -145.559293 33.614608 -107.643338 -1.042792 -0.010331 -18.277773 7.125000 0.000000 0.000000 
3.738648 15.986865 11.252815 -8.432971 -21.998646 21.665414 -7.464414 -6.602610 -49.883200 4.493830 18.710815 46.951593 -0.319602 6.546709 -10.442307 0.000600 -0.155200 -0.426400 17.350702 8.631378 -1.948061 1.288575 -3.593485 13.486768 -0.040226 -4.587606 -13.229819 -0.795600 5.693600 -15.897800 1.786383 -2.664503 -4.546741 -1.419296 -1.075507 -5.854990 2.658692 15.616033 5.803203 -6.211800 7.956900 7.802200 -56.927157 -26.934350 49.932239 42.428709 -42.718244 -12.015842 1.719588 2.556536 9.753268 -7.125000 0.000000 0.000000 71.154698 37.052104 54.112093 -145.470797 33.678795 -107.580299 -1.040282 -0.014695 -18.125309 7.125000 0.000000 0.000000 
3.705238 15.994542 11.217783 -8.196188 -22.076308 21.372948 -7.601170 -6.570279 -49.471825 4.369538 18.577614 46.514911 -0.339952 6.633694 -10.218704 0.000800 -0.182200 -0.500700 17.174007 8.785620 -2.398847 1.175737 -3.997264 14.507883 -0.139474 -4.153367 -13.598404 -0.815900 5.763700 -16.100300 1.782129 -2.712882 -4.554693 -1.416741 -1.101163 -5.836052 2.646032 15.563547 5.885137 -6.213300 7.941100 7.849600 -57.135358 -26.697055 49.565919 43.339898 -43.361743 -12.552060 1.689560 2.550384 9.641669 -7.125000 0.000000 0.000000 71.052832 37.066255 54.147709 -145.355615 33.765128 -107.497576 -1.037220 -0.020081 -17.931855 7.125000 0.000000 0.000000 
3.669124 16.001570 11.180480 -7.966978 -22.146192 21.057394 -7.720422 -6.535751 -49.036566 4.244937 18.438923 46.069121 -0.361338 6.726297 -9.980281 0.001000 -0.208300 -0.572200 17.026476 8.912097 -2.790425 1.065243 -4.370466 15.462963 -0.231189 -3.764565 -13.954322 -0.836300 5.833600 -16.302500 1.779054 -2.760519 -4.561439 -1.418028 -1.127534 -5.817520 2.630028 15.520591 5.968625 -6.215800 7.929800 7.900100 -57.357782 -26.414140 49.152383 44.386755 -44.077411 -13.179578 1.651049 2.543436 9.336152 -7.125000 0.000000 0.000000 70.931766 37.071248 54.169410 -145.225605 33.863091 -107.403529 -1.034197 -0.026491 -17.732672 7.125000 0.000000 0.000000 
3.630199 16.008058 11.140689 -7.739760 -22.210482 20.719474 -7.827856 -6.502646 -48.577073 4.119301 18.294459 45.612775 -0.384348 6.830730 -9.729975 0.001400 -0.237400 -0.652400 16.902800 9.011462 -3.130269 0.956977 -4.716197 16.358928 -0.316914 -3.417822 -14.306882 -0.856600 5.902200 -16.501100 1.775231 -2.801150 -4.567150 -1.428091 -1.151332 -5.799353 2.613373 15.478910 6.054422 -6.217500 7.919300 7.955000 -57.604583 -26.098957 48.687903 45.561148 -44.846936 -13.894321 1.602384 2.530765 8.898709 -7.125000 0.000000 0.000000 70.785500 37.063947 54.167846 -145.088997 33.964795 -107.304815 -1.031333 -0.033907 -17.557918 7.125000 0.000000 0.000000 
3.588246 16.013896 11.098304 -7.527864 -22.282561 20.364904 -7.913124 -6.454786 -48.090041 3.993765 18.142072 45.145006 -0.409573 6.950447 -9.466911 0.001800 -0.273700 -0.752100 16.818810 9.107360 -3.422050 0.852225 -5.038353 17.200531 -0.395281 -3.120564 -14.653893 -0.877700 5.972600 -16.705100 1.770440 -2.827254 -4.571023 -1.447241 -1.169043 -5.778214 2.597946 15.438600 6.144200 -6.217300 7.909900 8.015500 -57.859540 -25.752101 48.186207 46.870241 -45.663449 -14.704551 1.540829 2.513937 8.343681 -7.125000 0.000000 0.000000 70.615241 37.049004 54.151595 -144.952975 34.064687 -107.206424 -1.028827 -0.041237 -17.424188 7.125000 0.000000 0.000000 
3.543266 16.019195 11.053432 -7.328226 -22.361914 19.995577 -7.977017 -6.399066 -47.575445 3.867315 17.981429 44.663196 -0.437388 7.090270 -9.193829 0.002400 -0.318800 -0.876000 16.772169 9.200768 -3.672798 0.750532 -5.341154 17.997199 -0.468700 -2.864269 -15.003820 -0.898000 6.039500 -16.899100 1.764340 -2.834412 -4.574275 -1.472198 -1.177992 -5.761816 2.583466 15.392592 6.239580 -6.214700 7.898500 8.076400 -58.139038 -25.373398 47.663919 48.316554 -46.516108 -15.614977 1.465262 2.491307 7.717224 -7.125000 0.000000 0.000000 70.408807 37.009921 54.113167 -144.824129 34.157386 -107.113577 -1.026472 -0.048513 -17.339304 7.125000 0.000000 0.000000 
3.495258 16.024060 11.006182 -7.138975 -22.448741 19.614638 -8.018380 -6.339586 -47.034565 3.739660 17.812437 44.165423 -0.468383 7.253473 -8.910230 0.003300 -0.370800 -1.018800 16.763362 9.294246 -3.886477 0.651874 -5.626811 18.753751 -0.536579 -2.649537 -15.353036 -0.916800 6.100900 -17.077400 1.757135 -2.823356 -4.577735 -1.500774 -1.177960 -5.752101 2.569905 15.340605 6.344392 -6.209300 7.885400 8.140600 -58.449394 -24.956932 47.120254 49.905987 -47.395557 -16.634679 1.375290 2.462532 7.057442 -7.125000 0.000000 0.000000 70.165572 36.942690 54.058779 -144.705751 34.240892 -107.028732 -1.023794 -0.054586 -17.297428 7.125000 0.000000 0.000000 
3.444115 16.028601 10.956768 -6.953679 -22.538365 19.223291 -8.042702 -6.283178 -46.468389 3.609451 17.634757 43.648232 -0.501966 7.438985 -8.618951 0.004500 -0.432200 -1.187700 16.787577 9.381163 -4.066924 0.555545 -5.897163 19.475918 -0.600017 -2.473968 -15.707483 -0.936100 6.162800 -17.257500 1.749455 -2.798562 -4.581485 -1.528756 -1.171105 -5.746864 2.556682 15.285476 6.459959 -6.200300 7.871900 8.205900 -58.786512 -24.499451 46.569847 51.644085 -48.291573 -17.774277 1.273475 2.428515 6.373730 -7.125000 0.000000 0.000000 69.881265 36.853699 53.993493 -144.597348 34.315184 -106.951713 -1.020745 -0.060985 -17.285379 7.125000 0.000000 0.000000 
3.390160 16.032818 10.905517 -6.763324 -22.617830 18.820111 -8.056164 -6.245329 -45.878777 3.474911 17.448795 43.107773 -0.538235 7.646529 -8.319042 0.006000 -0.501200 -1.377100 16.838542 9.450962 -4.213441 0.459922 -6.154068 20.172052 -0.660085 -2.338937 -16.078778 -0.952100 6.213800 -17.406000 1.741833 -2.767952 -4.586719 -1.552441 -1.160699 -5.751171 2.543069 15.225634 6.586042 -6.186500 7.856900 8.269100 -59.164812 -23.989867 46.029474 53.538168 -49.196014 -19.052656 1.166397 2.401272 5.691318 -7.125000 0.000000 0.000000 69.553758 36.730241 53.921240 -144.508837 34.371542 -106.890421 -1.016223 -0.072788 -17.296528 7.125000 0.000000 0.000000 
3.333178 16.037143 10.852427 -6.560544 -22.687332 18.406222 -8.065841 -6.229557 -45.264866 3.334270 17.253308 42.538139 -0.577251 7.879446 -8.011247 0.008000 -0.578100 -1.588500 16.908084 9.491418 -4.334886 0.363920 -6.399826 20.848349 -0.717191 -2.242059 -16.465296 -0.967600 6.262800 -17.548700 1.733616 -2.733860 -4.592373 -1.577498 -1.148566 -5.752927 2.527136 15.166238 6.725738 -6.171200 7.842900 8.340500 -59.577736 -23.438035 45.481672 55.581816 -50.084294 -20.463137 1.053625 2.365241 5.022927 -7.125000 0.000000 0.000000 69.194951 36.597385 53.853078 -144.422294 34.425141 -106.830908 -1.010972 -0.084507 -17.311855 7.125000 0.000000 0.000000 
3.272953 16.041685 10.797175 -6.346799 -22.745781 17.985356 -8.068036 -6.237444 -44.628850 3.186367 17.046726 41.933290 -0.619307 8.138643 -7.689905 0.010300 -0.654500 -1.798600 16.999524 9.506585 -4.436473 0.267404 -6.636719 21.508905 -0.770898 -2.190939 -16.873053 -0.981100 6.304900 -17.671800 1.725278 -2.700171 -4.597863 -1.602989 -1.136660 -5.747650 2.507828 15.111548 6.877692 -6.155900 7.831700 8.422100 -59.997632 -22.842593 44.951608 57.787841 -50.943710 -22.022836 0.939049 2.325072 4.345224 -7.125000 0.000000 0.000000 68.813945 36.464630 53.795505 -144.334899 34.478809 -106.770578 -1.005212 -0.096680 -17.327261 7.125000 0.000000 0.000000 
3.209483 16.046766 10.739869 -6.114034 -22.793907 17.555718 -8.070094 -6.274584 -43.967629 3.029547 16.827480 41.287399 -0.664611 8.427481 -7.358264 0.012400 -0.720200 -1.979200 17.102829 9.489190 -4.522586 0.169370 -6.865176 22.156555 -0.822371 -2.185573 -17.311216 -0.992200 6.339700 -17.773200 1.715934 -2.667486 -4.602738 -1.631237 -1.125406 -5.730593 2.484893 15.063577 7.040910 -6.141700 7.823900 8.517800 -60.434238 -22.208848 44.427153 60.150240 -51.751629 -23.731249 0.825652 2.274462 3.688109 -7.125000 0.000000 0.000000 68.420424 36.342600 53.748720 -144.237144 34.539624 -106.702580 -0.998489 -0.108810 -17.339897 7.125000 0.000000 0.000000 
